<svg width="32" height="32" viewBox="0 0 32 32" fill="none" xmlns="http://www.w3.org/2000/svg">
<path d="M16.0533 2.66664C8.77334 2.66664 2.84 8.59998 2.84 15.88C2.84 18.2133 3.45334 20.48 4.6 22.48L2.73334 29.3333L9.73334 27.4933C11.6667 28.5466 13.84 29.1066 16.0533 29.1066C23.3333 29.1066 29.2667 23.1733 29.2667 15.8933C29.2667 12.36 27.8933 9.03998 25.4 6.54664C24.1776 5.31188 22.7216 4.33287 21.1169 3.66671C19.5121 3.00056 17.7908 2.66059 16.0533 2.66664ZM16.0667 4.89331C19 4.89331 21.7467 6.03998 23.8267 8.11998C24.8475 9.14045 25.6568 10.3524 26.2082 11.6863C26.7596 13.0203 27.0423 14.4499 27.04 15.8933C27.04 21.9466 22.1067 26.8666 16.0533 26.8666C14.08 26.8666 12.1467 26.3466 10.4667 25.3333L10.0667 25.1066L5.90667 26.2L7.01334 22.1466L6.74667 21.72C5.64526 19.9715 5.06269 17.9464 5.06667 15.88C5.08 9.82664 10 4.89331 16.0667 4.89331ZM11.3733 9.77331C11.16 9.77331 10.8 9.85331 10.4933 10.1866C10.2 10.52 9.33334 11.3333 9.33334 12.9466C9.33334 14.5733 10.52 16.1333 10.6667 16.36C10.8533 16.5866 13.0133 19.92 16.3333 21.3333C17.12 21.6933 17.7333 21.8933 18.2133 22.04C19 22.2933 19.72 22.2533 20.2933 22.1733C20.9333 22.08 22.24 21.3733 22.52 20.6C22.8 19.8266 22.8 19.1733 22.72 19.0266C22.6267 18.8933 22.4133 18.8133 22.08 18.6666C21.7467 18.48 20.12 17.68 19.8267 17.5733C19.52 17.4666 19.3333 17.4133 19.08 17.7333C18.8667 18.0666 18.2267 18.8133 18.04 19.0266C17.84 19.2533 17.6533 19.28 17.3333 19.12C16.9867 18.9466 15.92 18.6 14.6667 17.48C13.68 16.6 13.0267 15.52 12.8267 15.1866C12.6667 14.8666 12.8133 14.6666 12.9733 14.52C13.12 14.3733 13.3333 14.1333 13.4667 13.9333C13.64 13.7466 13.6933 13.6 13.8 13.3866C13.9067 13.16 13.8533 12.9733 13.7733 12.8133C13.6933 12.6666 13.0267 11.0133 12.7467 10.36C12.48 9.71998 12.2133 9.79998 12 9.78664C11.8133 9.78664 11.6 9.77331 11.3733 9.77331Z" fill="#FF9A62"/>
</svg>
